<svg width="15" height="14" viewBox="0 0 15 14" fill="none" xmlns="http://www.w3.org/2000/svg">
<path fill-rule="evenodd" clip-rule="evenodd" d="M5.81153 8.80972L5.89941 8.80974L6.09416 8.81025C7.74823 8.81873 11.6231 8.96286 11.6231 11.4132C11.6231 13.685 8.4407 13.9886 5.96529 14L5.52891 13.9998C3.87484 13.9913 0 13.8472 0 11.3976C0 9.07777 3.31634 8.80972 5.81153 8.80972ZM5.81153 9.87062C2.68997 9.87062 1.10668 10.3848 1.10668 11.3976C1.10668 12.4203 2.68997 12.9394 5.81153 12.9394C8.9331 12.9394 10.5164 12.4253 10.5164 11.4132C10.5164 10.389 8.9331 9.87062 5.81153 9.87062ZM12.6929 4.1861C12.9984 4.1861 13.2463 4.42374 13.2463 4.71655L13.2462 5.60368L14.2024 5.60424C14.5078 5.60424 14.7557 5.84188 14.7557 6.13469C14.7557 6.4275 14.5078 6.66514 14.2024 6.66514L13.2462 6.66458L13.2463 7.5534C13.2463 7.84621 12.9984 8.08385 12.6929 8.08385C12.3875 8.08385 12.1396 7.84621 12.1396 7.5534L12.1395 6.66458L11.1848 6.66514C10.8794 6.66514 10.6315 6.4275 10.6315 6.13469C10.6315 5.84188 10.8794 5.60424 11.1848 5.60424L12.1395 5.60368L12.1396 4.71655C12.1396 4.42374 12.3875 4.1861 12.6929 4.1861ZM5.81153 0C7.97546 0 9.73508 1.68754 9.73508 3.76125C9.73508 5.83495 7.97546 7.52249 5.81153 7.52249H5.78866C4.74175 7.51896 3.76049 7.12501 3.02492 6.41491C2.28861 5.70411 1.88504 4.76061 1.88871 3.75912C1.88871 1.68754 3.64835 0 5.81153 0ZM5.81153 1.0609C4.25923 1.0609 2.99539 2.27245 2.99539 3.76125C2.99246 4.48195 3.28167 5.15739 3.80919 5.66733C4.33744 6.17656 5.04129 6.45876 5.79088 6.46159L5.81153 6.98568V6.46159C7.36457 6.46159 8.6284 5.25004 8.6284 3.76125C8.6284 2.27245 7.36457 1.0609 5.81153 1.0609Z" fill="#E8112B"/>
</svg>
