<svg width="13" height="10" viewBox="0 0 13 10" fill="none" xmlns="http://www.w3.org/2000/svg">
<path d="M0.958984 4.54859C0.958984 4.29363 1.14845 4.08292 1.39426 4.04957L1.4626 4.04497L10.3155 4.04538L7.11722 0.860149C6.92012 0.663899 6.91943 0.345028 7.11568 0.14793C7.29409 -0.031249 7.57384 -0.0481062 7.77131 0.0977554L7.8279 0.146397L11.8904 4.19144C11.9164 4.21731 11.939 4.24531 11.9581 4.27488C11.9635 4.28377 11.969 4.29288 11.9742 4.30217C11.979 4.31013 11.9834 4.31839 11.9875 4.32675C11.9932 4.33891 11.9987 4.35148 12.0038 4.3643C12.0079 4.37418 12.0113 4.38379 12.0144 4.39348C12.0181 4.4055 12.0217 4.4183 12.0248 4.4313C12.0271 4.44038 12.0289 4.44911 12.0305 4.45788C12.0328 4.47093 12.0347 4.48443 12.036 4.49809C12.0372 4.50851 12.0379 4.51884 12.0383 4.52917C12.0384 4.53544 12.0385 4.542 12.0385 4.54859L12.0383 4.5681C12.0379 4.57798 12.0372 4.58786 12.0363 4.59771L12.0385 4.54859C12.0385 4.58037 12.0356 4.61146 12.03 4.64161C12.0287 4.64881 12.0271 4.6562 12.0254 4.66356C12.0218 4.67872 12.0177 4.69332 12.0129 4.70764C12.0106 4.71475 12.0079 4.72234 12.005 4.72989C11.9991 4.74504 11.9927 4.75949 11.9856 4.77356C11.9824 4.78017 11.9787 4.7871 11.9749 4.79396C11.9686 4.80514 11.9621 4.81577 11.9552 4.82613C11.9504 4.83347 11.945 4.8411 11.9394 4.84861L11.9351 4.85442C11.9215 4.87214 11.9068 4.88894 11.891 4.9047L11.8904 4.90517L7.82793 8.95089C7.63085 9.14715 7.31198 9.14649 7.11571 8.94941C6.93729 8.77025 6.92161 8.49043 7.06831 8.29358L7.11719 8.23719L10.3142 5.05261L1.4626 5.05221C1.18446 5.05221 0.958984 4.82673 0.958984 4.54859Z" fill="white"/>
</svg>
