<svg width="33" height="34" viewBox="0 0 33 34" fill="none" xmlns="http://www.w3.org/2000/svg">
<path d="M16.1666 0C20.2787 0 23.6115 3.4 23.6612 7.599H24.0094C28.5858 7.599 32.3 11.424 32.3 16.116V25.5C32.3 30.192 28.5858 34 24.0094 34H8.29055C3.71417 34 0 30.192 0 25.5V16.116C0 11.424 3.71417 7.599 8.29055 7.599H8.63876C8.67192 5.559 9.45123 3.655 10.8606 2.227C12.2866 0.782 14.1105 0.051 16.1666 0ZM22.4508 9.622C21.771 9.622 21.2072 10.2 21.2072 10.897V12.869C21.2072 13.566 21.771 14.144 22.4508 14.144C23.1472 14.144 23.6944 13.566 23.6944 12.869V10.897C23.6944 10.2 23.1472 9.622 22.4508 9.622ZM9.69995 9.622C9.02012 9.622 8.45637 10.2 8.45637 10.897V12.869C8.45637 13.566 9.02012 14.144 9.69995 14.144C10.3964 14.144 10.9435 13.566 10.9435 12.869V10.897C10.9435 10.2 10.3964 9.622 9.69995 9.622ZM16.1666 2.55C14.8898 2.55 13.5633 3.077 12.6016 4.046C11.6731 4.998 11.1591 6.256 11.1259 7.599H21.1741C21.1243 4.811 18.9025 2.55 16.1666 2.55Z" fill="white"/>
</svg>
