<svg width="62" height="62" viewBox="0 0 62 62" fill="none" xmlns="http://www.w3.org/2000/svg">
<path fill-rule="evenodd" clip-rule="evenodd" d="M17.1985 5.16741C20.0841 5.20616 22.1404 7.36841 24.7418 10.1042C25.3851 10.7784 26.08 11.5147 26.8576 12.2897C30.6267 16.0613 29.5546 19.1381 28.6892 21.6077C27.7488 24.3022 26.9351 26.6272 31.8072 31.4993C36.6794 36.3715 39.0018 35.5577 41.6937 34.6097C44.1659 33.7468 47.2349 32.667 51.0117 36.4387C51.779 37.2059 52.5023 37.8931 53.174 38.5312C55.9201 41.1455 58.0901 43.2096 58.1266 46.1029C58.1547 48.5674 56.6563 51.0836 52.957 54.7829L51.3192 53.6721L52.7064 55.0232C51.8875 55.8627 49.7098 58.0999 45.4447 58.1257H45.3672C38.9295 58.1257 30.5362 53.0004 20.4199 42.8867C10.2622 32.7316 5.12916 24.3125 5.1677 17.8619C5.19116 13.5994 7.42575 11.4165 8.26533 10.5976L8.33699 10.5193L8.51075 10.3444C12.2178 6.63733 14.765 5.11316 17.1985 5.16741ZM17.1494 9.04241H17.1287C15.9687 9.04241 14.2069 10.2049 11.7498 12.5916L11.2564 13.0762L11.262 13.075C11.2651 13.075 11.2198 13.1234 11.148 13.1966L10.9752 13.3695C10.3501 13.9766 9.05583 15.2398 9.04278 17.8826C9.02225 21.5793 11.4532 28.4432 23.1582 40.1457C34.8065 51.7914 41.6601 54.2507 45.3672 54.2507H45.4214C48.0642 54.2352 49.3248 52.941 49.9319 52.3184C50.1153 52.1298 50.2652 51.9877 50.3711 51.9025C52.9467 49.3114 54.2642 47.3868 54.2513 46.1494C54.2357 44.8887 52.6677 43.4007 50.5003 41.3367C49.8105 40.6831 49.0613 39.9675 48.2708 39.177C46.2197 37.1336 45.2096 37.4823 42.975 38.2677C39.8879 39.3501 35.659 40.8329 29.0689 34.2377C22.4762 27.6476 23.9539 23.4187 25.0312 20.329C25.8113 18.097 26.1678 17.0817 24.1192 15.0306C23.3184 14.2297 22.5977 13.4702 21.9337 12.7727C19.8826 10.6182 18.4023 9.06049 17.1494 9.04241ZM39.387 14.3576C44.7629 15.4013 48.9143 19.5501 49.9606 24.9286C50.1647 25.9826 49.4801 26.9979 48.4313 27.202C48.3047 27.2252 48.1807 27.2381 48.0567 27.2381C47.1473 27.2381 46.3388 26.5975 46.1579 25.6726C45.4139 21.8493 42.4663 18.9017 38.6482 18.1603C37.5968 17.9562 36.9122 16.941 37.1163 15.8895C37.3203 14.8381 38.3537 14.151 39.387 14.3576ZM39.2323 5.18214C49.7671 6.35239 57.9485 14.5235 59.1291 25.0557C59.2479 26.1201 58.4833 27.0785 57.4215 27.1973C57.3492 27.2051 57.2743 27.2102 57.2019 27.2102C56.228 27.2102 55.391 26.4791 55.2799 25.4897C54.3009 16.7684 47.5274 10.0001 38.8034 9.0313C37.7417 8.91247 36.9744 7.95664 37.0933 6.8923C37.2095 5.83055 38.1576 5.0478 39.2323 5.18214Z" fill="#E8112B"/>
</svg>
