<svg width="36" height="36" viewBox="0 0 36 36" fill="none" xmlns="http://www.w3.org/2000/svg">
<path d="M31.155 29.295C31.155 29.835 31.035 30.39 30.78 30.93C30.525 31.47 30.195 31.98 29.76 32.46C29.025 33.27 28.215 33.855 27.3 34.23C26.4 34.605 25.425 34.8 24.375 34.8C22.845 34.8 21.21 34.44 19.485 33.705C17.76 32.97 16.035 31.98 14.325 30.735C12.6 29.475 10.965 28.08 9.40495 26.535C7.85995 24.975 6.46495 23.34 5.21995 21.63C3.98995 19.92 2.99995 18.21 2.27995 16.515C1.55995 14.805 1.19995 13.17 1.19995 11.61C1.19995 10.59 1.37995 9.615 1.73995 8.715C2.09995 7.8 2.66995 6.96 3.46495 6.21C4.42495 5.265 5.47495 4.8 6.58495 4.8C7.00495 4.8 7.42495 4.89 7.79995 5.07C8.18995 5.25 8.53495 5.52 8.80495 5.91L12.285 10.815C12.555 11.19 12.75 11.535 12.885 11.865C13.02 12.18 13.095 12.495 13.095 12.78C13.095 13.14 12.99 13.5 12.78 13.845C12.585 14.19 12.3 14.55 11.94 14.91L10.8 16.095C10.635 16.26 10.56 16.455 10.56 16.695C10.56 16.815 10.575 16.92 10.605 17.04C10.65 17.16 10.695 17.25 10.725 17.34C10.995 17.835 11.46 18.48 12.12 19.26C12.795 20.04 13.515 20.835 14.295 21.63C15.105 22.425 15.885 23.16 16.68 23.835C17.46 24.495 18.105 24.945 18.615 25.215C18.69 25.245 18.78 25.29 18.885 25.335C19.005 25.38 19.125 25.395 19.26 25.395C19.515 25.395 19.71 25.305 19.875 25.14L21.015 24.015C21.39 23.64 21.75 23.355 22.095 23.175C22.44 22.965 22.785 22.86 23.16 22.86C23.445 22.86 23.745 22.92 24.075 23.055C24.405 23.19 24.75 23.385 25.125 23.64L30.09 27.165C30.48 27.435 30.75 27.75 30.915 28.125C31.065 28.5 31.155 28.875 31.155 29.295Z" stroke="white" stroke-width="1.2" stroke-miterlimit="10"/>
<path d="M25.9499 15.3001C25.9499 14.4001 25.2449 13.0201 24.1949 11.8951C23.235 10.8601 21.96 10.0501 20.7 10.0501" stroke="white" stroke-width="1.2" stroke-linecap="round" stroke-linejoin="round"/>
<path d="M31.2 15.3C31.2 9.495 26.505 4.8 20.7 4.8" stroke="white" stroke-width="1.2" stroke-linecap="round" stroke-linejoin="round"/>
</svg>
