<svg width="32" height="36" viewBox="0 0 32 36" fill="none" xmlns="http://www.w3.org/2000/svg">
<g filter="url(#filter0_d_3070_2994)">
<path d="M26.6 28C23.7333 28 20.9391 27.3609 18.2173 26.0827C15.4956 24.8044 13.0844 23.1156 10.984 21.016C8.88356 18.9164 7.19467 16.5053 5.91733 13.7827C4.64 11.06 4.00089 8.26578 4 5.4C4 5 4.13333 4.66667 4.4 4.4C4.66667 4.13333 5 4 5.4 4H10.8C11.1111 4 11.3889 4.1 11.6333 4.3C11.8778 4.5 12.0222 4.75556 12.0667 5.06667L12.9333 9.73333C12.9778 10.0444 12.972 10.328 12.916 10.584C12.86 10.84 12.7324 11.0676 12.5333 11.2667L9.33333 14.5333C10.2667 16.1333 11.4333 17.6333 12.8333 19.0333C14.2333 20.4333 15.7778 21.6444 17.4667 22.6667L20.6 19.5333C20.8 19.3333 21.0613 19.1836 21.384 19.084C21.7067 18.9844 22.0231 18.9564 22.3333 19L26.9333 19.9333C27.2444 20 27.5 20.1502 27.7 20.384C27.9 20.6178 28 20.8898 28 21.2V26.6C28 27 27.8667 27.3333 27.6 27.6C27.3333 27.8667 27 28 26.6 28Z" fill="#E8112B"/>
</g>
<defs>
<filter id="filter0_d_3070_2994" x="-4" y="0" width="40" height="40" filterUnits="userSpaceOnUse" color-interpolation-filters="sRGB">
<feFlood flood-opacity="0" result="BackgroundImageFix"/>
<feColorMatrix in="SourceAlpha" type="matrix" values="0 0 0 0 0 0 0 0 0 0 0 0 0 0 0 0 0 0 127 0" result="hardAlpha"/>
<feOffset dy="4"/>
<feGaussianBlur stdDeviation="2"/>
<feComposite in2="hardAlpha" operator="out"/>
<feColorMatrix type="matrix" values="0 0 0 0 0 0 0 0 0 0 0 0 0 0 0 0 0 0 0.25 0"/>
<feBlend mode="normal" in2="BackgroundImageFix" result="effect1_dropShadow_3070_2994"/>
<feBlend mode="normal" in="SourceGraphic" in2="effect1_dropShadow_3070_2994" result="shape"/>
</filter>
</defs>
</svg>
