<svg width="15" height="14" viewBox="0 0 15 14" fill="none" xmlns="http://www.w3.org/2000/svg">
<path fill-rule="evenodd" clip-rule="evenodd" d="M7.30202 0C11.3283 0 14.604 3.1402 14.604 7C14.604 10.8598 11.3283 14 7.30202 14C3.27569 14 0 10.8598 0 7C0 3.1402 3.27569 0 7.30202 0ZM7.30202 1.05C3.87956 1.05 1.0953 3.7191 1.0953 7C1.0953 10.2809 3.87956 12.95 7.30202 12.95C10.7245 12.95 13.5087 10.2809 13.5087 7C13.5087 3.7191 10.7245 1.05 7.30202 1.05ZM7.05462 3.56678C7.35766 3.56678 7.60228 3.80198 7.60228 4.09178V7.18718L10.0886 8.60818C10.3478 8.75728 10.4333 9.07928 10.2785 9.32848C10.1755 9.49298 9.99369 9.58468 9.80749 9.58468C9.71183 9.58468 9.61544 9.56088 9.52709 9.51118L6.77423 7.93688C6.6092 7.84168 6.50697 7.67018 6.50697 7.48538V4.09178C6.50697 3.80198 6.75232 3.56678 7.05462 3.56678Z" fill="white"/>
</svg>
