<svg width="50" height="50" viewBox="0 0 50 50" fill="none" xmlns="http://www.w3.org/2000/svg">
<g clip-path="url(#clip0_3100_1712)">
<path d="M48.5352 7.51953H44.7266V3.60498H48.5352C49.3441 3.60498 50 2.94912 50 2.14014C50 1.33115 49.3441 0.675293 48.5352 0.675293H44.4942C44.2338 0.269531 43.7797 0 43.2617 0C42.7438 0 42.2896 0.269531 42.0292 0.675293H37.9883C37.1793 0.675293 36.5234 1.33115 36.5234 2.14014C36.5234 2.94912 37.1793 3.60498 37.9883 3.60498H41.7969V7.51953H8.20312V3.60498H12.0117C12.8207 3.60498 13.4766 2.94912 13.4766 2.14014C13.4766 1.33115 12.8207 0.675293 12.0117 0.675293H7.9708C7.71035 0.269531 7.25625 0 6.73828 0C6.22031 0 5.76621 0.269531 5.50576 0.675293H1.46484C0.655859 0.675293 0 1.33115 0 2.14014C0 2.94912 0.655859 3.60498 1.46484 3.60498H5.27344V7.51953H1.46484C0.655859 7.51953 0 8.17539 0 8.98438C0 13.0229 3.28564 16.3086 7.32422 16.3086H14.0625V16.4062C14.0625 18.4235 15.4293 20.1266 17.2852 20.6408V25.1953H12.9883C12.1793 25.1953 11.5234 25.8512 11.5234 26.6602V48.5352C11.5234 49.3441 12.1793 50 12.9883 50H37.0117C37.8207 50 38.4766 49.3441 38.4766 48.5352V26.6602C38.4766 25.8512 37.8207 25.1953 37.0117 25.1953H32.7147V20.6409C34.5707 20.1267 35.9375 18.4236 35.9375 16.4062V16.3086H42.6758C46.7144 16.3086 50 13.0229 50 8.98438C50 8.5958 49.8457 8.22334 49.5709 7.94863C49.2963 7.67393 48.9237 7.51953 48.5352 7.51953ZM7.32422 13.3789C5.41436 13.3789 3.78525 12.1544 3.18066 10.4492H14.0625V13.3789H7.32422ZM35.5469 47.0703H14.4531V28.125H20.6055V33.1055C20.6055 33.5764 20.8317 34.0185 21.2138 34.2938C21.5957 34.569 22.0868 34.644 22.5335 34.4951L25 33.673L27.4665 34.4951C27.6178 34.5456 27.774 34.5703 27.9296 34.5703C28.2332 34.5703 28.5336 34.4759 28.7861 34.2938C29.1683 34.0185 29.3945 33.5764 29.3945 33.1055V28.125H35.5469V47.0703ZM23.5352 28.125H26.4648V31.0731L25.4632 30.7393C25.3129 30.6892 25.1563 30.6641 25 30.6641C24.8437 30.6641 24.6871 30.6892 24.5368 30.7393L23.5352 31.0731V28.125ZM20.2148 25.1953V20.8008H29.7851V25.1953H20.2148ZM33.0078 16.4062C33.0078 17.214 32.3507 17.8711 31.543 17.8711H18.457C17.6493 17.8711 16.9922 17.214 16.9922 16.4062V10.4492H33.0078V16.4062ZM42.6758 13.3789H35.9375V10.4492H46.8193C46.2147 12.1544 44.5856 13.3789 42.6758 13.3789Z" fill="white"/>
<path d="M23.5352 15.625H26.4648C27.2738 15.625 27.9297 14.9691 27.9297 14.1602C27.9297 13.3512 27.2738 12.6953 26.4648 12.6953H23.5352C22.7262 12.6953 22.0703 13.3512 22.0703 14.1602C22.0703 14.9691 22.7262 15.625 23.5352 15.625Z" fill="white"/>
</g>
<defs>
<clipPath id="clip0_3100_1712">
<rect width="50" height="50" fill="white"/>
</clipPath>
</defs>
</svg>
