<svg width="62" height="62" viewBox="0 0 62 62" fill="none" xmlns="http://www.w3.org/2000/svg">
<path fill-rule="evenodd" clip-rule="evenodd" d="M43.0348 5.16602C51.6373 5.16602 58.124 12.1849 58.124 21.4927V39.235C58.124 43.9987 56.4397 48.3025 53.3784 51.356C50.6323 54.0918 47.0699 55.541 43.0761 55.541H17.6225C13.6364 55.541 10.0766 54.0943 7.32792 51.356C4.26667 48.3025 2.58234 43.9987 2.58234 39.235V21.4927C2.58234 12.1849 9.06909 5.16602 17.6716 5.16602H43.0348ZM43.0348 9.04102H17.6716C11.1745 9.04102 6.45734 14.2774 6.45734 21.4927V39.235C6.45734 42.9628 7.73867 46.2927 10.0637 48.6099C12.0683 50.612 14.6853 51.666 17.6303 51.666H43.0348C43.0399 51.6608 43.0606 51.666 43.0761 51.666C46.0237 51.666 48.638 50.612 50.6427 48.6099C52.9703 46.2927 54.249 42.9628 54.249 39.235V21.4927C54.249 14.2774 49.5318 9.04102 43.0348 9.04102ZM47.1061 20.9987C47.7803 21.828 47.6538 23.0473 46.8245 23.7242L35.3442 33.0552C33.8923 34.2073 32.1563 34.7834 30.4229 34.7834C28.6947 34.7834 26.9716 34.2125 25.5301 33.0707L13.9438 23.7293C13.1094 23.0577 12.9803 21.8357 13.6493 21.0039C14.3236 20.1747 15.5429 20.0429 16.3748 20.712L27.9507 30.043C29.4051 31.1952 31.4537 31.1952 32.9184 30.0327L44.3781 20.7172C45.2099 20.0377 46.4292 20.1669 47.1061 20.9987Z" fill="#E8112B"/>
</svg>
