<svg width="29" height="30" viewBox="0 0 29 30" fill="none" xmlns="http://www.w3.org/2000/svg">
<path fill-rule="evenodd" clip-rule="evenodd" d="M16.3453 19.9364C18.0249 19.9364 19.392 21.2938 19.392 22.9622V27.2532C19.392 27.6117 19.6794 27.8991 20.0477 27.9075H22.7065C24.8018 27.9075 26.5052 26.2251 26.5052 24.1577V11.9877C26.4954 11.2762 26.1564 10.6066 25.5747 10.1616L16.3774 2.82664C15.1428 1.84873 13.4158 1.84873 12.177 2.82943L3.04251 10.1588C2.43847 10.6178 2.09949 11.2874 2.09251 12.0114V24.1577C2.09251 26.2251 3.79582 27.9075 5.89112 27.9075H8.57511C8.95316 27.9075 9.26006 27.6076 9.26006 27.2393C9.26006 27.1584 9.26983 27.0775 9.28657 27.0007V22.9622C9.28657 21.3035 10.6453 19.9476 12.3123 19.9364H16.3453ZM22.7065 30H20.0226C18.4853 29.9637 17.2995 28.757 17.2995 27.2532V22.9622C17.2995 22.4474 16.8712 22.0289 16.3453 22.0289H12.3193C11.8046 22.0317 11.3791 22.4516 11.3791 22.9622V27.2393C11.3791 27.3439 11.3651 27.4443 11.3358 27.5392C11.1852 28.9203 10.005 30 8.57511 30H5.89112C2.64214 30 0 27.3788 0 24.1577V12.0016C0.0139501 10.615 0.652864 9.34551 1.75632 8.5099L10.8727 1.19308C12.8801 -0.397228 15.6771 -0.397228 17.6803 1.19029L26.8623 8.51408C27.9406 9.33574 28.5795 10.6024 28.5977 11.9723V24.1577C28.5977 27.3788 25.9555 30 22.7065 30Z" fill="white"/>
</svg>
