<svg width="30" height="30" viewBox="0 0 30 30" fill="none" xmlns="http://www.w3.org/2000/svg">
<path fill-rule="evenodd" clip-rule="evenodd" d="M21.493 0C26.5807 0 30 3.56541 30 8.87068V21.1293C30 26.4346 26.5807 30 21.493 30H8.49198C3.41182 30 0 26.4346 0 21.1293V8.87068C0 3.56541 3.41182 0 8.49198 0H21.493ZM21.493 2.25564H8.49198C4.70291 2.25564 2.25451 4.85263 2.25451 8.87068V21.1293C2.25451 25.1489 4.70291 27.7444 8.49198 27.7444H21.493C25.2911 27.7444 27.7455 25.1489 27.7455 21.1293V8.87068C27.7455 4.85263 25.2911 2.25564 21.493 2.25564ZM22.4534 15.1871C22.4629 15.1948 22.4723 15.2025 22.4919 15.2208L22.5209 15.2485C22.5268 15.2542 22.5332 15.2605 22.5403 15.2675L22.6242 15.3508C22.8953 15.6224 23.6445 16.3879 25.8773 18.6818C26.3116 19.1269 26.3041 19.8412 25.8577 20.2758C25.4128 20.7134 24.6974 20.6999 24.263 20.2547C24.263 20.2547 21.1834 17.0923 20.9639 16.8788C20.731 16.6878 20.3567 16.5765 19.9885 16.6126C19.6142 16.6502 19.2776 16.8292 19.0386 17.1194C15.5456 21.3585 15.5035 21.3991 15.4464 21.4547C14.1568 22.7209 12.0752 22.6999 10.8081 21.4066C10.8081 21.4066 9.41032 19.9871 9.38627 19.9585C9.03908 19.6367 8.41984 19.6577 8.0486 20.0502L5.749 22.4758C5.52655 22.7104 5.22896 22.8277 4.93136 22.8277C4.6518 22.8277 4.37375 22.7254 4.15581 22.5179C3.70341 22.0908 3.68537 21.375 4.11373 20.9254L6.41032 18.4998C7.62625 17.2081 9.67786 17.145 10.975 18.363L12.4148 19.8247C12.8161 20.2307 13.4684 20.2382 13.8712 19.8412C14.023 19.6623 17.2966 15.6848 17.2966 15.6848C17.9188 14.9299 18.7966 14.4638 19.772 14.3675C20.749 14.2818 21.6974 14.566 22.4534 15.1871ZM9.85701 6.96075C11.9342 6.96226 13.622 8.65248 13.622 10.7262C13.622 12.8029 11.9327 14.4931 9.85701 14.4931C7.78136 14.4931 6.09349 12.8029 6.09349 10.7262C6.09349 8.64947 7.78136 6.96075 9.85701 6.96075ZM9.85551 9.21639C9.02435 9.21639 8.348 9.89308 8.348 10.7262C8.348 11.5592 9.02435 12.2374 9.85701 12.2374C10.6897 12.2374 11.3675 11.5592 11.3675 10.7262C11.3675 9.89459 10.6897 9.21789 9.85551 9.21639Z" fill="white"/>
</svg>
