<svg width="43" height="51" viewBox="0 0 43 51" fill="none" xmlns="http://www.w3.org/2000/svg">
<path fill-rule="evenodd" clip-rule="evenodd" d="M21.6448 0.166016C33.3964 0.166016 42.9573 9.79926 42.9573 21.6413C42.9573 36.1983 26.2793 50.541 21.6448 50.541C17.0103 50.541 0.332336 36.1983 0.332336 21.6413C0.332336 9.79926 9.89325 0.166016 21.6448 0.166016ZM21.6448 4.04102C12.0297 4.04102 4.20734 11.9383 4.20734 21.6413C4.20734 33.987 18.736 46.015 21.6448 46.6557C24.5537 46.0124 39.0823 33.9844 39.0823 21.6413C39.0823 11.9383 31.26 4.04102 21.6448 4.04102ZM21.6474 13.0827C26.2768 13.0827 30.0433 16.8492 30.0433 21.4811C30.0433 26.1104 26.2768 29.8743 21.6474 29.8743C17.0181 29.8743 13.2516 26.1104 13.2516 21.4811C13.2516 16.8492 17.0181 13.0827 21.6474 13.0827ZM21.6474 16.9577C19.1545 16.9577 17.1266 18.9856 17.1266 21.4811C17.1266 23.974 19.1545 25.9993 21.6474 25.9993C24.1403 25.9993 26.1683 23.974 26.1683 21.4811C26.1683 18.9856 24.1403 16.9577 21.6474 16.9577Z" fill="#E8112B"/>
</svg>
