<svg width="28" height="30" viewBox="0 0 28 30" fill="none" xmlns="http://www.w3.org/2000/svg">
<path fill-rule="evenodd" clip-rule="evenodd" d="M21.0795 0C24.738 0 27.717 2.9775 27.717 6.6375V23.346C27.717 27.015 24.7305 30 21.063 30H13.7355C10.077 30 7.0995 27.0225 7.0995 23.3625V21.9495C7.0995 21.3285 7.6035 20.8245 8.2245 20.8245C8.8455 20.8245 9.3495 21.3285 9.3495 21.9495V23.3625C9.3495 25.7805 11.3175 27.75 13.7355 27.75H21.063C23.4915 27.75 25.467 25.776 25.467 23.346V6.6375C25.467 4.2195 23.4975 2.25 21.0795 2.25H13.752C11.325 2.25 9.3495 4.224 9.3495 6.651V8.0505C9.3495 8.6715 8.8455 9.1755 8.2245 9.1755C7.6035 9.1755 7.0995 8.6715 7.0995 8.0505V6.651C7.0995 2.9835 10.0845 0 13.752 0H21.0795ZM15.5884 9.8295L19.9819 14.2046C20.0175 14.2403 20.0508 14.2783 20.0814 14.3184L19.9819 14.2035C20.0418 14.2625 20.0943 14.3278 20.1387 14.3976C20.1478 14.4152 20.158 14.4323 20.1678 14.4497C20.1849 14.4765 20.1994 14.5051 20.2126 14.5342C20.2201 14.5548 20.2287 14.5753 20.2368 14.5962C20.2496 14.6247 20.2595 14.654 20.2682 14.6837C20.2732 14.7071 20.2792 14.7304 20.2845 14.754C20.2927 14.7826 20.2979 14.8114 20.3021 14.8404C20.3021 14.8536 20.3038 14.8674 20.3053 14.8813C20.3114 14.9209 20.3134 14.9604 20.3134 15L20.3025 15.1185L20.3012 15.1526C20.3009 15.1551 20.3005 15.1577 20.3002 15.1602L20.3134 15C20.3134 15.0833 20.3042 15.1657 20.2863 15.2459C20.2792 15.2696 20.2732 15.2929 20.2665 15.316C20.2595 15.346 20.2496 15.3753 20.2385 15.4042C20.2287 15.4247 20.2201 15.4452 20.2109 15.4654C20.1994 15.4949 20.1849 15.5235 20.1692 15.5514C20.158 15.5677 20.1478 15.5848 20.1371 15.6016C20.1209 15.6303 20.1019 15.6574 20.0817 15.6838C20.0678 15.6993 20.0549 15.7152 20.0416 15.7308C20.0236 15.7537 20.0033 15.7755 19.9819 15.7965L15.5884 20.169C15.3694 20.388 15.0815 20.4975 14.795 20.4975C14.507 20.4975 14.2175 20.388 13.9985 20.166C13.559 19.725 13.5619 19.014 14.0014 18.576L16.4625 16.125H1.125C0.504 16.125 0 15.621 0 15C0 14.379 0.504 13.875 1.125 13.875H16.4625L14.0014 11.4225C13.5619 10.9845 13.559 10.2735 13.9985 9.8325C14.438 9.3915 15.1489 9.3915 15.5884 9.8295Z" fill="white"/>
</svg>
