<svg width="31" height="30" viewBox="0 0 31 30" fill="none" xmlns="http://www.w3.org/2000/svg">
<path fill-rule="evenodd" clip-rule="evenodd" d="M13.962 0C17.631 0 20.616 2.985 20.616 6.654V8.052C20.616 8.673 20.112 9.177 19.491 9.177C18.87 9.177 18.366 8.673 18.366 8.052V6.654C18.366 4.224 16.3905 2.25 13.962 2.25H6.6495C4.224 2.25 2.25 4.224 2.25 6.654V23.3475C2.25 25.776 4.224 27.75 6.6495 27.75H13.9785C16.3965 27.75 18.366 25.782 18.366 23.364V21.9495C18.366 21.3285 18.87 20.8245 19.491 20.8245C20.112 20.8245 20.616 21.3285 20.616 21.9495V23.364C20.616 27.024 17.637 30 13.9785 30H6.6495C2.9835 30 0 27.0165 0 23.3475V6.654C0 2.985 2.9835 0 6.6495 0H13.962ZM26.0821 9.831L30.4742 14.2035C30.5133 14.2424 30.5484 14.2828 30.5805 14.3256L30.4742 14.2035C30.5273 14.2559 30.5746 14.3131 30.6156 14.3742C30.6336 14.4019 30.651 14.4305 30.6672 14.4599C30.6802 14.4828 30.6923 14.5068 30.7035 14.5312C30.7129 14.5527 30.722 14.5743 30.7305 14.5962C30.7418 14.6247 30.7517 14.654 30.7604 14.6837C30.7669 14.7071 30.7729 14.7304 30.7782 14.754C30.7849 14.7827 30.7902 14.8115 30.7943 14.8405C30.7967 14.8594 30.799 14.8792 30.8007 14.8991C30.8042 14.9333 30.8056 14.9666 30.8056 15L30.798 15.093L30.7949 15.1526C30.7946 15.1551 30.7942 15.1577 30.7939 15.1602L30.8056 15C30.8056 15.0833 30.7964 15.1657 30.7785 15.2459C30.7729 15.2696 30.7669 15.2929 30.7602 15.316C30.7517 15.346 30.7418 15.3753 30.7307 15.4042C30.722 15.4257 30.7129 15.4473 30.7032 15.4685C30.6923 15.4932 30.6803 15.5172 30.6673 15.5407C30.651 15.5695 30.6336 15.5981 30.615 15.6259C30.6045 15.6423 30.5929 15.6585 30.5809 15.6745C30.5452 15.7215 30.5063 15.7657 30.4642 15.8066L26.0821 20.1705C25.8631 20.3895 25.5752 20.499 25.2887 20.499C25.0007 20.499 24.7112 20.3895 24.4921 20.1675C24.0541 19.7265 24.0557 19.0155 24.4952 18.5775L26.955 16.125H11.6187C10.9977 16.125 10.4937 15.621 10.4937 15C10.4937 14.379 10.9977 13.875 11.6187 13.875H26.958L24.4952 11.424C24.0557 10.986 24.0527 10.275 24.4921 9.834C24.9302 9.393 25.6411 9.393 26.0821 9.831Z" fill="white"/>
</svg>
