<svg width="40" height="40" viewBox="0 0 40 40" fill="none" xmlns="http://www.w3.org/2000/svg">
<g clip-path="url(#clip0_3097_282)">
<path d="M36.4844 10.2555H31.4273V9.38516C31.4273 8.78594 30.9766 8.28359 30.3805 8.21953L28.2867 7.99531L29.6086 6.35547C29.9844 5.88984 29.9484 5.21484 29.525 4.79141L26.6359 1.90313C26.2125 1.47969 25.5383 1.44297 25.0719 1.81953L23.432 3.14141L23.2078 1.04688C23.1437 0.451562 22.6414 0 22.043 0H17.957C17.3586 0 16.8562 0.451562 16.7922 1.04688L16.568 3.14141L14.9281 1.81953C14.4617 1.44297 13.7875 1.47891 13.3641 1.90313L10.475 4.79141C10.0516 5.21484 10.0156 5.88984 10.3914 6.35547L11.7133 7.99531L9.61953 8.21953C9.02344 8.28359 8.57266 8.78594 8.57266 9.38516V10.2555H3.51562C2.86797 10.2555 2.34375 10.7805 2.34375 11.4273V25.9375H4.6875V12.5992H8.57266V13.4703C8.57266 14.0695 9.02344 14.5719 9.61953 14.6352L11.7133 14.8602L10.3914 16.5C10.0156 16.9656 10.0516 17.6406 10.475 18.0641L13.3641 20.9523C13.7875 21.3766 14.4617 21.4125 14.9281 21.0359L16.568 19.7141L16.7922 21.8086C16.8562 22.4039 17.3586 22.8555 17.957 22.8555H18.8281V25.9375H21.1719V22.8555H22.043C22.6414 22.8555 23.1437 22.4039 23.2078 21.8086L23.432 19.7141L25.0719 21.0359C25.5383 21.4125 26.2125 21.3766 26.6359 20.9523L29.525 18.0641C29.9484 17.6406 29.9844 16.9656 29.6086 16.5L28.2867 14.8602L30.3805 14.6352C30.9766 14.5719 31.4273 14.0695 31.4273 13.4703V12.5992H35.3125V25.9375H37.6562V11.4273C37.6562 10.7805 37.132 10.2555 36.4844 10.2555ZM20 16.5055C17.2 16.5055 14.9219 14.2273 14.9219 11.4273C14.9219 8.62734 17.2 6.34922 20 6.34922C22.8 6.34922 25.0781 8.62734 25.0781 11.4273C25.0781 14.2273 22.8 16.5055 20 16.5055Z" fill="white"/>
<path d="M20 14.1617C21.5102 14.1617 22.7344 12.9375 22.7344 11.4274C22.7344 9.91722 21.5102 8.69299 20 8.69299C18.4898 8.69299 17.2656 9.91722 17.2656 11.4274C17.2656 12.9375 18.4898 14.1617 20 14.1617Z" fill="white"/>
<path d="M10.5469 28.2812H7.03125V33.3594C7.03125 34.0062 6.50625 34.5312 5.85938 34.5312C5.2125 34.5312 4.6875 34.0062 4.6875 33.3594V28.2812H1.17188C0.525 28.2812 0 28.8063 0 29.4531V38.8281C0 39.475 0.525 40 1.17188 40H10.5469C11.1938 40 11.7188 39.475 11.7188 38.8281V29.4531C11.7188 28.8063 11.1938 28.2812 10.5469 28.2812Z" fill="white"/>
<path d="M24.6875 28.2812H21.1719V33.3594C21.1719 34.0062 20.6469 34.5312 20 34.5312C19.3531 34.5312 18.8281 34.0062 18.8281 33.3594V28.2812H15.3125C14.6656 28.2812 14.1406 28.8063 14.1406 29.4531V38.8281C14.1406 39.475 14.6656 40 15.3125 40H24.6875C25.3344 40 25.8594 39.475 25.8594 38.8281V29.4531C25.8594 28.8063 25.3344 28.2812 24.6875 28.2812Z" fill="white"/>
<path d="M38.8281 28.2812H35.3125V33.3594C35.3125 34.0062 34.7875 34.5312 34.1406 34.5312C33.4938 34.5312 32.9688 34.0062 32.9688 33.3594V28.2812H29.4531C28.8063 28.2812 28.2812 28.8063 28.2812 29.4531V38.8281C28.2812 39.475 28.8063 40 29.4531 40H38.8281C39.475 40 40 39.475 40 38.8281V29.4531C40 28.8063 39.475 28.2812 38.8281 28.2812Z" fill="white"/>
</g>
<defs>
<clipPath id="clip0_3097_282">
<rect width="40" height="40" fill="white"/>
</clipPath>
</defs>
</svg>
