<svg width="21" height="25" viewBox="0 0 21 25" fill="none" xmlns="http://www.w3.org/2000/svg">
<path d="M20.2308 14.8563C20.1131 14.9771 19.6686 15.4937 19.2546 15.9187C16.8272 18.5917 10.495 22.9667 7.18079 24.3021C6.67746 24.5167 5.40493 24.9708 4.72503 25C4.07355 25 3.45251 24.85 2.85988 24.5458C2.12112 24.1208 1.52849 23.4521 1.20377 22.6625C0.994723 22.1146 0.669995 20.475 0.669995 20.4458C0.345267 18.6521 0.166665 15.7375 0.166665 12.5167C0.166665 9.44792 0.345268 6.65208 0.611139 4.83125C0.641582 4.80208 0.966311 2.76458 1.32148 2.06667C1.97297 0.791664 3.2455 -1.55215e-06 4.60732 -1.43309e-06L4.72504 -1.4228e-06C5.61195 0.0312487 7.47711 0.822917 7.47711 0.852084C10.6128 2.18958 16.7988 6.35 19.285 9.11458C19.285 9.11458 19.9852 9.825 20.2897 10.2688C20.7646 10.9062 21 11.6958 21 12.4854C21 13.3667 20.7341 14.1875 20.2308 14.8563Z" fill="#181818"/>
</svg>
