<svg width="13" height="14" viewBox="0 0 13 14" fill="none" xmlns="http://www.w3.org/2000/svg">
<path d="M11.883 8.3195C11.817 8.38717 11.5681 8.6765 11.3363 8.9145C9.97698 10.4113 6.43095 12.8613 4.57496 13.6092C4.2931 13.7293 3.58049 13.9837 3.19974 14C2.83491 14 2.48713 13.916 2.15525 13.7457C1.74155 13.5077 1.40968 13.1332 1.22783 12.691C1.11077 12.3842 0.928919 11.466 0.928919 11.4497C0.747072 10.4452 0.647055 8.813 0.647055 7.00933C0.647055 5.29083 0.747072 3.72517 0.89596 2.7055C0.913008 2.68917 1.09486 1.54817 1.29375 1.15733C1.65858 0.443333 2.3712 -8.69203e-07 3.13382 -8.02532e-07L3.19974 -7.96769e-07C3.69641 0.0175001 4.7409 0.460834 4.7409 0.477166C6.49687 1.22617 9.96107 3.556 11.3533 5.10417C11.3533 5.10417 11.7454 5.502 11.9159 5.7505C12.1819 6.1075 12.3137 6.54967 12.3137 6.99183C12.3137 7.48533 12.1648 7.945 11.883 8.3195Z" fill="#F7C600"/>
</svg>
