<svg width="16" height="20" viewBox="0 0 16 20" fill="none" xmlns="http://www.w3.org/2000/svg">
<path d="M15.3513 11.742C15.2643 11.8313 14.9358 12.2132 14.6297 12.5274C12.8354 14.5032 8.15466 17.7372 5.70476 18.7243C5.3327 18.883 4.39205 19.2187 3.88947 19.2402C3.40789 19.2402 2.94882 19.1294 2.51075 18.9045C1.96466 18.5904 1.52659 18.096 1.28655 17.5124C1.13202 17.1073 0.891983 15.8954 0.891983 15.8738C0.651945 14.5479 0.519923 12.3934 0.519923 10.0126C0.519923 7.74413 0.651945 5.67745 0.848477 4.33149C0.870981 4.30993 1.11102 2.80381 1.37356 2.28791C1.85514 1.34543 2.79579 0.760234 3.80246 0.760234L3.88947 0.760234C4.54508 0.783334 5.9238 1.36854 5.9238 1.39009C8.24168 2.37877 12.8144 5.45415 14.6522 7.49773C14.6522 7.49773 15.1698 8.02287 15.3948 8.35089C15.7459 8.82213 15.9199 9.4058 15.9199 9.98945C15.9199 10.6409 15.7234 11.2476 15.3513 11.742Z" fill="#E8112B"/>
</svg>
