<svg width="64" height="46" viewBox="0 0 64 46" fill="none" xmlns="http://www.w3.org/2000/svg">
<path d="M14.1923 0.412109C6.3662 0.412109 0 6.77831 0 14.6045C0 22.1543 5.9248 28.3466 13.3691 28.7744C13.498 30.166 13.4013 33.9541 9.7714 39.2236C9.497 39.6211 9.5468 40.1572 9.8876 40.498C11.373 41.9834 12.291 42.9189 12.9335 43.5732C13.7744 44.4287 14.1582 44.8193 14.7197 45.3291C14.9101 45.5019 15.1503 45.5888 15.3916 45.5888C15.6259 45.5888 15.8593 45.5068 16.0478 45.3437C22.373 39.8398 29.3994 28.4677 28.3828 14.5322C27.7871 6.35061 21.8193 0.412109 14.1923 0.412109ZM15.4013 43.2226C15.1289 42.9541 14.8183 42.6377 14.3603 42.1718C13.8037 41.6045 13.04 40.8271 11.8818 39.665C16.2871 32.8769 15.455 28.042 15.0908 27.3486C14.9179 27.0195 14.5634 26.7978 14.1923 26.7978C7.4697 26.7978 2 21.3281 2 14.6045C2 7.88181 7.4697 2.41211 14.1923 2.41211C20.7412 2.41211 25.8701 7.57031 26.3886 14.6767C27.5312 30.3506 18.2158 40.5273 15.4013 43.2226Z" fill="#E8112B"/>
<path d="M63.8994 14.5322V14.5312C63.3017 6.35061 57.333 0.412109 49.708 0.412109C41.8818 0.412109 35.5146 6.77831 35.5146 14.6045C35.5146 22.1543 41.4404 28.3466 48.8857 28.7744C49.0146 30.165 48.9169 33.9511 45.2861 39.2236C45.0117 39.6211 45.0615 40.1572 45.4023 40.498C46.8818 41.9775 47.7978 42.9111 48.4404 43.5644C49.2851 44.4257 49.6709 44.8183 50.2353 45.33C50.4257 45.5019 50.6669 45.5888 50.9072 45.5888C51.1416 45.5888 51.375 45.5068 51.5634 45.3427C57.8886 39.8388 64.915 28.4668 63.8994 14.5322ZM50.9169 43.2226C50.6425 42.9521 50.3291 42.6338 49.8671 42.1631C49.3105 41.5966 48.5498 40.8213 47.3964 39.665C51.8017 32.8759 50.9707 28.042 50.6074 27.3486C50.4345 27.0205 50.0791 26.7978 49.708 26.7978C42.9843 26.7978 37.5146 21.3281 37.5146 14.6045C37.5146 7.88181 42.9843 2.41211 49.708 2.41211C56.2558 2.41211 61.3857 7.57031 61.9052 14.6777V14.6767C63.0468 30.3486 53.7314 40.5273 50.9169 43.2226Z" fill="#E8112B"/>
</svg>
