<svg width="50" height="48" viewBox="0 0 50 48" fill="none" xmlns="http://www.w3.org/2000/svg">
<path d="M5.85947 19.2635C6.93821 19.2635 7.81269 18.389 7.81269 17.3103C7.81269 16.2315 6.93821 15.3571 5.85947 15.3571C4.78074 15.3571 3.90625 16.2315 3.90625 17.3103C3.90625 18.389 4.78074 19.2635 5.85947 19.2635Z" fill="white"/>
<path d="M5.85947 47.4873C6.93821 47.4873 7.81269 46.6128 7.81269 45.5341C7.81269 44.4554 6.93821 43.5809 5.85947 43.5809C4.78074 43.5809 3.90625 44.4554 3.90625 45.5341C3.90625 46.6128 4.78074 47.4873 5.85947 47.4873Z" fill="white"/>
<path d="M5.85947 33.3265C6.93821 33.3265 7.81269 32.4521 7.81269 31.3733C7.81269 30.2946 6.93821 29.4201 5.85947 29.4201C4.78074 29.4201 3.90625 30.2946 3.90625 31.3733C3.90625 32.4521 4.78074 33.3265 5.85947 33.3265Z" fill="white"/>
<path d="M5.85947 26.295C6.93821 26.295 7.81269 25.4205 7.81269 24.3418C7.81269 23.263 6.93821 22.3885 5.85947 22.3885C4.78074 22.3885 3.90625 23.263 3.90625 24.3418C3.90625 25.4205 4.78074 26.295 5.85947 26.295Z" fill="white"/>
<path d="M5.85947 40.4558C6.93821 40.4558 7.81269 39.5813 7.81269 38.5025C7.81269 37.4238 6.93821 36.5493 5.85947 36.5493C4.78074 36.5493 3.90625 37.4238 3.90625 38.5025C3.90625 39.5813 4.78074 40.4558 5.85947 40.4558Z" fill="white"/>
<path d="M13.0865 47.4873C14.1653 47.4873 15.0397 46.6128 15.0397 45.5341C15.0397 44.4554 14.1653 43.5809 13.0865 43.5809C12.0078 43.5809 11.1333 44.4554 11.1333 45.5341C11.1333 46.6128 12.0078 47.4873 13.0865 47.4873Z" fill="white"/>
<path d="M34.0813 9.58722C30.3118 9.58722 27.2451 12.6539 27.2451 16.4234C27.2451 20.193 30.3118 23.2597 34.0813 23.2597C37.8509 23.2597 40.9176 20.193 40.9176 16.4234C40.9176 12.6539 37.8509 9.58722 34.0813 9.58722ZM34.0813 19.3532C32.4658 19.3532 31.1516 18.0389 31.1516 16.4234C31.1516 14.8079 32.4659 13.4937 34.0813 13.4937C35.6969 13.4937 37.0111 14.808 37.0111 16.4234C37.0112 18.0389 35.6969 19.3532 34.0813 19.3532Z" fill="white"/>
<path d="M34.181 47.4873C35.2597 47.4873 36.1342 46.6128 36.1342 45.5341C36.1342 44.4554 35.2597 43.5809 34.181 43.5809C33.1023 43.5809 32.2278 44.4554 32.2278 45.5341C32.2278 46.6128 33.1023 47.4873 34.181 47.4873Z" fill="white"/>
<path d="M34.0813 0.512817C25.3036 0.512817 18.1626 7.65032 18.1626 16.4235V16.8509C18.1626 21.2746 20.6736 26.399 25.626 32.0816C29.1889 36.1698 32.7062 39.0238 32.8542 39.1433L34.0812 40.1341L35.3082 39.1433C35.4563 39.0238 38.9737 36.1698 42.5364 32.0816C47.4889 26.399 49.9999 21.2746 49.9999 16.8509V16.4235C49.9999 7.65022 42.8589 0.512817 34.0813 0.512817ZM46.0934 16.4235V16.8509C46.0934 20.2441 43.8582 24.6081 39.6294 29.4713C37.5142 31.904 35.3742 33.9046 34.0808 35.0517C32.7972 33.9139 30.6796 31.9344 28.5711 29.515C24.3174 24.6342 22.069 20.2549 22.069 16.8509V16.4235C22.069 9.80432 27.4577 4.41926 34.0813 4.41926C40.7048 4.41926 46.0935 9.80432 46.0934 16.4235Z" fill="white"/>
<path d="M5.85957 0.512695C2.62861 0.512695 0 3.14131 0 6.37236C0 9.60332 2.62861 12.2319 5.85957 12.2319C9.09053 12.2319 11.7192 9.60332 11.7192 6.37236C11.7192 3.14131 9.09062 0.512695 5.85957 0.512695ZM5.85957 8.32549C4.78262 8.32549 3.90635 7.44932 3.90635 6.37226C3.90635 5.29531 4.78252 4.41904 5.85957 4.41904C6.93662 4.41904 7.81279 5.29521 7.81279 6.37226C7.81279 7.44932 6.93662 8.32549 5.85957 8.32549Z" fill="white"/>
<path d="M20.118 47.4873C21.1968 47.4873 22.0712 46.6128 22.0712 45.5341C22.0712 44.4554 21.1968 43.5809 20.118 43.5809C19.0393 43.5809 18.1648 44.4554 18.1648 45.5341C18.1648 46.6128 19.0393 47.4873 20.118 47.4873Z" fill="white"/>
<path d="M27.1495 47.4873C28.2282 47.4873 29.1027 46.6128 29.1027 45.5341C29.1027 44.4554 28.2282 43.5809 27.1495 43.5809C26.0708 43.5809 25.1963 44.4554 25.1963 45.5341C25.1963 46.6128 26.0708 47.4873 27.1495 47.4873Z" fill="white"/>
</svg>
