<svg width="50" height="50" viewBox="0 0 50 50" fill="none" xmlns="http://www.w3.org/2000/svg">
<g clip-path="url(#clip0_3100_1703)">
<path d="M5.88181 46.1548C4.9453 44.7502 3.2779 43.9014 1.53229 43.9354C0.723574 43.9522 0.0815606 44.6213 0.0979637 45.43C0.114367 46.2288 0.76668 46.8651 1.56204 46.8651C1.57196 46.8651 1.58226 46.8647 1.59256 46.8647C2.16133 46.8525 2.98149 47.086 3.44422 47.7798C4.37081 49.1699 5.92148 50 7.5927 50C9.27803 50 10.8245 49.1543 11.7408 47.7798C12.1291 47.1981 12.7525 46.8643 13.4521 46.8643C14.1513 46.8643 14.775 47.1981 15.163 47.7798C16.0896 49.1699 17.6402 50 19.3114 50C20.9819 50 22.533 49.1699 23.4596 47.7798C23.8479 47.1981 24.4712 46.8643 25.1708 46.8643C25.8701 46.8643 26.4938 47.1981 26.8817 47.7798C27.8083 49.1699 29.359 50 31.0302 50C32.7007 50 34.2517 49.1699 35.1783 47.7798C35.5666 47.1981 36.19 46.8643 36.8896 46.8643C37.5888 46.8643 38.2125 47.1981 38.6005 47.7798C39.5095 49.1436 41.056 50 42.7489 50C44.4194 50 45.9705 49.1699 46.897 47.7798C47.2583 47.2385 47.951 46.8792 48.6625 46.8647C49.4716 46.8479 50.1136 46.1788 50.0972 45.3701C50.0808 44.5713 49.4281 43.935 48.6331 43.935C48.6228 43.935 48.6129 43.9354 48.6026 43.9354C46.9371 43.9697 45.3494 44.82 44.4595 46.1548C44.0715 46.7365 43.4482 47.0703 42.7486 47.0703C42.6555 47.0703 42.5636 47.0638 42.4731 47.052L47.013 31.2641C47.2171 30.5546 46.8608 29.8038 46.1822 29.5128L41.2109 27.3823V16.2109C41.2109 15.4018 40.5547 14.7461 39.746 14.7461H35.3515V7.32422C35.3515 6.51512 34.6954 5.85938 33.8866 5.85938H29.4921V1.46484C29.4921 0.655746 28.836 0 28.0273 0H22.1679C21.3588 0 20.7031 0.655746 20.7031 1.46484V5.85938H16.3085C15.4994 5.85938 14.8437 6.51512 14.8437 7.32422V14.7461H10.4491C9.64005 14.7461 8.9843 15.4018 8.9843 16.2109V27.3823L4.01261 29.5132C3.33397 29.8038 2.97768 30.5546 3.18177 31.2641L7.72545 47.0661C7.68158 47.0688 7.63733 47.0703 7.5927 47.0703C6.89308 47.0703 6.26976 46.7365 5.88181 46.1548ZM43.8403 31.6967L40.0069 45.0283C39.1345 44.3287 38.0405 43.9346 36.8896 43.9346C35.2187 43.9346 33.6677 44.7647 32.7411 46.1548C32.3531 46.7365 31.7294 47.0703 31.0302 47.0703C30.3306 47.0703 29.7073 46.7369 29.3189 46.1548C28.6575 45.1622 27.6767 44.4572 26.5624 44.1341V24.2916C28.654 25.1881 43.1606 31.4053 43.8403 31.6967ZM23.6327 2.92969H26.5624V5.85938H23.6327V2.92969ZM17.7734 8.78906H32.4218V14.7461H17.7734V8.78906ZM11.914 17.6758H38.2812V26.1269L25.6747 20.7241C25.3139 20.5692 24.8958 20.5627 24.5204 20.7241L11.914 26.1269V17.6758ZM6.35445 31.6967C7.03461 31.4053 21.5411 25.1881 23.6327 24.2916V44.1772C22.5787 44.5183 21.6548 45.2057 21.0223 46.1548C20.6344 46.7365 20.0107 47.0703 19.3114 47.0703C18.6118 47.0703 17.9885 46.7365 17.6002 46.1548C16.6736 44.7643 15.1225 43.9346 13.4521 43.9346C12.2478 43.9346 11.1076 44.3672 10.2168 45.1283L6.35445 31.6967Z" fill="white"/>
<path d="M32.4219 30.8594C32.4219 31.6685 31.7661 32.3242 30.957 32.3242C30.1479 32.3242 29.4922 31.6685 29.4922 30.8594C29.4922 30.0503 30.1479 29.3945 30.957 29.3945C31.7661 29.3945 32.4219 30.0503 32.4219 30.8594Z" fill="white"/>
<path d="M20.7031 30.8594C20.7031 31.6685 20.0474 32.3242 19.2383 32.3242C18.4292 32.3242 17.7734 31.6685 17.7734 30.8594C17.7734 30.0503 18.4292 29.3945 19.2383 29.3945C20.0474 29.3945 20.7031 30.0503 20.7031 30.8594Z" fill="white"/>
</g>
<defs>
<clipPath id="clip0_3100_1703">
<rect width="50" height="50" fill="white"/>
</clipPath>
</defs>
</svg>
