<svg width="34" height="34" viewBox="0 0 34 34" fill="none" xmlns="http://www.w3.org/2000/svg">
<path d="M17 0C26.401 0 34 7.616 34 17C34 26.401 26.401 34 17 34C7.616 34 0 26.401 0 17C0 7.616 7.616 0 17 0ZM16.405 8.381C15.708 8.381 15.13 8.942 15.13 9.656V18.241C15.13 18.683 15.368 19.091 15.759 19.329L22.423 23.307C22.627 23.426 22.848 23.494 23.086 23.494C23.511 23.494 23.936 23.273 24.174 22.865C24.531 22.27 24.344 21.488 23.732 21.114L17.68 17.51V9.656C17.68 8.942 17.102 8.381 16.405 8.381Z" fill="white"/>
</svg>
