<svg width="36" height="36" viewBox="0 0 36 36" fill="none" xmlns="http://www.w3.org/2000/svg">
<path d="M18 36C14.4399 36 10.9598 34.9443 7.99974 32.9665C5.03966 30.9886 2.73255 28.1774 1.37018 24.8883C0.0077991 21.5992 -0.348661 17.98 0.345873 14.4884C1.04041 10.9967 2.75474 7.78943 5.27209 5.27209C7.78943 2.75474 10.9967 1.04041 14.4884 0.345873C17.98 -0.348661 21.5992 0.0077991 24.8883 1.37018C28.1774 2.73255 30.9886 5.03966 32.9665 7.99974C34.9443 10.9598 36 14.4399 36 18C36 22.7739 34.1036 27.3523 30.7279 30.7279C27.3523 34.1036 22.7739 36 18 36ZM18 2.57144C14.9485 2.57144 11.9656 3.47631 9.42835 5.17162C6.89114 6.86693 4.91362 9.27655 3.74587 12.0957C2.57811 14.915 2.27258 18.0171 2.86789 21.01C3.46321 24.0028 4.93264 26.7519 7.09036 28.9097C9.24809 31.0674 11.9972 32.5368 14.99 33.1321C17.9829 33.7274 21.0851 33.4219 23.9043 32.2541C26.7235 31.0864 29.1331 29.1089 30.8284 26.5717C32.5237 24.0344 33.4286 21.0515 33.4286 18C33.4286 13.9081 31.8031 9.98378 28.9097 7.09036C26.0162 4.19694 22.0919 2.57144 18 2.57144Z" fill="white"/>
<path d="M23.902 25.7143L16.7148 18.5272V6.42858H19.2863V17.46L25.7148 23.9014L23.902 25.7143Z" fill="white"/>
</svg>
