<svg width="50" height="50" viewBox="0 0 50 50" fill="none" xmlns="http://www.w3.org/2000/svg">
<path d="M46.5804 22.7412H45.9922L44.1437 14.581C43.8896 13.4603 42.9106 12.6776 41.7616 12.6776H34.2941V10.2351C34.2941 8.34941 32.7602 6.81543 30.8745 6.81543C29.7155 6.81543 4.579 6.81543 3.41973 6.81543C1.53398 6.81543 0 8.34941 0 10.2351V34.2702C0 36.1549 1.53398 37.6898 3.41963 37.6898H6.18857C6.86367 40.8262 9.65898 43.1848 12.9946 43.1848C16.3303 43.1848 19.1256 40.8262 19.8007 37.6898H33.8632C34.5383 40.8262 37.3336 43.1848 40.6692 43.1848C44.0498 43.1848 46.8754 40.7637 47.5007 37.5639C48.9409 37.1613 50 35.8374 50 34.2702V26.1607C50 24.2751 48.466 22.7412 46.5804 22.7412ZM47.0688 26.1608V33.4857C46.0039 31.0041 43.5358 29.262 40.6692 29.262C37.8241 29.262 35.3728 30.9777 34.294 33.4291V25.6724H46.5803C46.85 25.6723 47.0688 25.8911 47.0688 26.1608ZM41.3708 15.6088L42.9868 22.7412H34.2941V15.6088H41.3708ZM21.9678 9.74658V15.0421L17.6933 13.3254C17.3441 13.185 16.9515 13.1844 16.6009 13.3254L12.3264 15.0421V9.74658H21.9678ZM2.93115 34.2702V10.2351C2.93115 9.96543 3.15 9.74658 3.41963 9.74658H9.39522V17.2102C9.39522 18.2456 10.4423 18.9565 11.4069 18.5702L17.1471 16.2654L22.8872 18.5702C23.8535 18.9567 24.8989 18.2439 24.8989 17.2102V9.74658H30.8745C31.1441 9.74658 31.363 9.96543 31.363 10.2351V34.7588H19.8007C19.1256 31.6205 16.3303 29.2619 12.9946 29.2619C9.65898 29.2619 6.86367 31.6205 6.18857 34.7588H3.41963C3.15 34.7588 2.93115 34.539 2.93115 34.2702ZM12.9946 40.2536C10.1793 40.2536 8.20518 37.4144 9.23887 34.7588C10.8501 30.6505 17.0249 31.7607 17.0249 36.2243C17.0249 38.452 15.212 40.2536 12.9946 40.2536ZM40.6692 40.2536C37.8412 40.2536 35.8819 37.3967 36.9145 34.7588C37.5017 33.2591 38.9633 32.1931 40.6692 32.1931C43.5032 32.1931 45.4575 35.0612 44.423 37.6899C43.8368 39.1887 42.3752 40.2536 40.6692 40.2536Z" fill="white"/>
<path d="M20.9763 24.5441H26.9094C27.7187 24.5441 28.3749 23.8879 28.3749 23.0786C28.3749 22.2692 27.7187 21.613 26.9094 21.613H20.9763C20.1669 21.613 19.5107 22.2692 19.5107 23.0786C19.5107 23.8879 20.1669 24.5441 20.9763 24.5441Z" fill="white"/>
<path d="M26.9094 28.282H22.9238C22.1144 28.282 21.4583 28.9381 21.4583 29.7475C21.4583 30.5569 22.1144 31.213 22.9238 31.213H26.9094C27.7188 31.213 28.375 30.5569 28.375 29.7475C28.375 28.9381 27.7188 28.282 26.9094 28.282Z" fill="white"/>
</svg>
