<svg width="29" height="34" viewBox="0 0 29 34" fill="none" xmlns="http://www.w3.org/2000/svg">
<path d="M14.4137 0C18.4386 0 21.9954 2.48554 23.3083 6.16738C23.4465 6.53911 23.4119 6.94464 23.2392 7.29947C23.0664 7.65431 22.7572 7.92466 22.3755 8.04463C21.5981 8.31329 20.7344 7.90945 20.4407 7.13219C19.5598 4.62976 17.1431 2.95696 14.4483 2.95696C10.9226 2.95696 8.07403 5.72975 8.05503 9.12434V11.4054L8.0343 11.4088H21.643C25.6507 11.4088 28.9 14.5871 28.9 18.5072V26.9016C28.9 30.8217 25.6507 34 21.643 34H7.25523C3.24931 34 0 30.8217 0 26.9016V18.5072C0 15.2833 2.21112 12.5916 5.22031 11.7265L5.03202 11.7484V9.15814C5.06657 4.10764 9.26597 0 14.4137 0ZM14.4414 19.3504C13.6122 19.3504 12.9385 20.0093 12.9385 20.8204V24.5715C12.9385 25.3995 13.6122 26.0584 14.4414 26.0584C15.2878 26.0584 15.9615 25.3995 15.9615 24.5715V20.8204C15.9615 20.0093 15.2878 19.3504 14.4414 19.3504Z" fill="white"/>
</svg>
