<svg width="40" height="40" viewBox="0 0 40 40" fill="none" xmlns="http://www.w3.org/2000/svg">
<path d="M16.4202 0H18.7639V4.76562H16.4202V0Z" fill="white"/>
<path d="M24.5703 12.9688V12.582C24.5703 11.9352 25.0953 11.4102 25.7422 11.4102H28.1922V1.17188C28.1922 0.525 27.6672 0 27.0203 0H21.1078V5.9375C21.1078 6.58437 20.5828 7.10938 19.9359 7.10938H15.2484C14.6008 7.10938 14.0766 6.58437 14.0766 5.9375V0H8.16406C7.51719 0 6.99219 0.525 6.99219 1.17188V16.4844H18.3914C18.7602 14.4867 20.5148 12.9688 22.6172 12.9688H24.5703Z" fill="white"/>
<path d="M11.5605 18.8281H13.9121V23.5938H11.5605V18.8281Z" fill="white"/>
<path d="M16.2563 24.7656C16.2563 25.4125 15.7312 25.9375 15.0844 25.9375H10.3891C9.74141 25.9375 9.21719 25.4125 9.21719 24.7656V18.8281H3.32031C2.67344 18.8281 2.14844 19.3531 2.14844 20V38.8094C2.14844 39.4563 2.67344 39.9813 3.32031 39.9813H18.3203V18.8281H16.2563V24.7656Z" fill="white"/>
<path d="M26.9141 13.7539H31.6016V16.7187H26.9141V13.7539Z" fill="white"/>
<path d="M35.8984 15.3125H33.9453V17.8906C33.9453 18.5375 33.4203 19.0625 32.7734 19.0625H25.7422C25.0953 19.0625 24.5703 18.5375 24.5703 17.8906V15.3125H22.6172C21.5383 15.3125 20.6641 16.1867 20.6641 17.2656V38.0469C20.6641 39.1258 21.5383 40 22.6172 40H35.8984C36.9773 40 37.8516 39.1258 37.8516 38.0469V17.2656C37.8516 16.1867 36.9773 15.3125 35.8984 15.3125ZM34.4088 25.9067L28.5494 31.7661C28.0917 32.2237 27.3498 32.2237 26.8921 31.7661L24.5757 29.4497C24.118 28.9921 24.118 28.2501 24.5757 27.7924C25.0333 27.3348 25.7753 27.3348 26.233 27.7924L27.7208 29.2802L32.7516 24.2495C33.2091 23.7919 33.9512 23.7919 34.4088 24.2495C34.8664 24.7071 34.8664 25.4491 34.4088 25.9067Z" fill="white"/>
</svg>
