<svg width="40" height="40" viewBox="0 0 40 40" fill="none" xmlns="http://www.w3.org/2000/svg">
<path d="M16.4202 0H18.7639V4.76562H16.4202V0Z" fill="#181818"/>
<path d="M24.5703 12.9688V12.582C24.5703 11.9352 25.0953 11.4102 25.7422 11.4102H28.1922V1.17188C28.1922 0.525 27.6672 0 27.0203 0H21.1078V5.9375C21.1078 6.58437 20.5828 7.10938 19.9359 7.10938H15.2484C14.6008 7.10938 14.0766 6.58437 14.0766 5.9375V0H8.16406C7.51719 0 6.99219 0.525 6.99219 1.17188V16.4844H18.3914C18.7602 14.4867 20.5148 12.9688 22.6172 12.9688H24.5703Z" fill="#181818"/>
<path d="M11.5605 18.8281H13.9121V23.5938H11.5605V18.8281Z" fill="#181818"/>
<path d="M16.2563 24.7656C16.2563 25.4125 15.7312 25.9375 15.0844 25.9375H10.3891C9.74141 25.9375 9.21719 25.4125 9.21719 24.7656V18.8281H3.32031C2.67344 18.8281 2.14844 19.3531 2.14844 20V38.8094C2.14844 39.4563 2.67344 39.9813 3.32031 39.9813H18.3203V18.8281H16.2563V24.7656Z" fill="#181818"/>
<path d="M26.9141 13.7539H31.6016V16.7187H26.9141V13.7539Z" fill="#181818"/>
<path d="M35.2344 15H33.2812V17.5781C33.2812 18.225 32.7563 18.75 32.1094 18.75H25.0781C24.4313 18.75 23.9062 18.225 23.9062 17.5781V15H21.9531C20.8742 15 20 15.8742 20 16.9531V37.7344C20 38.8133 20.8742 39.6875 21.9531 39.6875H35.2344C36.3133 39.6875 37.1875 38.8133 37.1875 37.7344V16.9531C37.1875 15.8742 36.3133 15 35.2344 15ZM33.7447 25.5942L27.8853 31.4536C27.4277 31.9112 26.6857 31.9112 26.228 31.4536L23.9116 29.1372C23.454 28.6796 23.454 27.9376 23.9116 27.4799C24.3692 27.0223 25.1113 27.0223 25.5689 27.4799L27.0567 28.9677L32.0875 23.937C32.5451 23.4794 33.2871 23.4794 33.7448 23.937C34.2023 24.3946 34.2023 25.1366 33.7447 25.5942Z" fill="#181818"/>
</svg>
