<svg width="38" height="34" viewBox="0 0 38 34" fill="none" xmlns="http://www.w3.org/2000/svg">
<path d="M27.4183 0C33.9328 0 37.7778 3.74868 37.7778 10.1656H29.7857V10.2311C26.0765 10.2311 23.0696 13.1627 23.0696 16.779C23.0696 20.3953 26.0765 23.3269 29.7857 23.3269H37.7778V23.9162C37.7778 30.2513 33.9328 34 27.4183 34H10.3595C3.84494 34 0 30.2513 0 23.9162V10.0838C0 3.74868 3.84494 0 10.3595 0H27.4183ZM36.3674 12.9812C37.1463 12.9812 37.7778 13.5969 37.7778 14.3563V19.1363C37.7687 19.892 37.1425 20.5025 36.3674 20.5113H29.9368C28.059 20.5359 26.417 19.2825 25.9911 17.4993C25.7778 16.3923 26.0772 15.2501 26.8091 14.3786C27.541 13.5072 28.6305 12.9957 29.7857 12.9812H36.3674ZM30.6923 15.1911H30.0711C29.6897 15.1868 29.3224 15.3314 29.0511 15.5928C28.7798 15.8543 28.6272 16.2107 28.6272 16.5826C28.6271 17.3628 29.2709 17.9978 30.0711 18.0067H30.6923C31.4898 18.0067 32.1363 17.3764 32.1363 16.5989C32.1363 15.8214 31.4898 15.1911 30.6923 15.1911ZM19.6109 7.35002H8.94914C8.15818 7.34997 7.51438 7.97035 7.50519 8.74145C7.50519 9.52165 8.14896 10.1567 8.94914 10.1656H19.6109C20.4083 10.1656 21.0548 9.53533 21.0548 8.75782C21.0548 7.98032 20.4083 7.35002 19.6109 7.35002Z" fill="#F7C600"/>
</svg>
